<?xml version="1.0" encoding="utf-8"?>
<!-- Generator: Adobe Illustrator 21.0.0, SVG Export Plug-In . SVG Version: 6.00 Build 0)  -->
<svg version="1.1" id="Capa_1" xmlns:sketch="http://www.bohemiancoding.com/sketch/ns"
	 xmlns="http://www.w3.org/2000/svg" xmlns:xlink="http://www.w3.org/1999/xlink" x="0px" y="0px" width="79px" height="75px"
	 viewBox="0 0 79 75" style="enable-background:new 0 0 79 75;" xml:space="preserve">
<style type="text/css">
	.st0{fill:#FFFFFF;}
	.st1{fill:#24EDA2;}
	.st2{fill:#000A3B;}
</style>
<title>Oval 356 + ios7-redo + Shape Copy 5</title>
<desc>Created with Sketch.</desc>
<g id="Page-1" sketch:type="MSPage">
	<g id="Copay-v1-Buy-_x2013_-Main" transform="translate(-18.000000, -990.000000)" sketch:type="MSArtboardGroup">
		<g id="Oval-356-_x2B_-ios7-redo-_x2B_-Shape-Copy-5" transform="translate(19.000000, 991.000000)" sketch:type="MSLayerGroup">
			<g id="Oval-356-_x2B_-ios7-redo" sketch:type="MSShapeGroup">
				<g>
					<circle id="Oval-356_1_" class="st0" cx="32" cy="32" r="32"/>
					<path class="st1" d="M32,65C13.8,65-1,50.2-1,32S13.8-1,32-1s33,14.8,33,33S50.2,65,32,65z M32,1C14.9,1,1,14.9,1,32
						s13.9,31,31,31s31-13.9,31-31S49.1,1,32,1z"/>
				</g>
				<g id="plus-round" transform="translate(14.933333, 14.933333)">
					<path id="Shape" class="st1" d="M19.9,14.3V2.8c0-1.5-1.3-2.7-2.8-2.7s-2.8,1.2-2.8,2.7v11.5H2.8c-1.5,0-2.7,1.3-2.7,2.8
						s1.2,2.8,2.7,2.8h11.5v11.5c0,1.5,1.3,2.7,2.8,2.7s2.8-1.2,2.8-2.7V19.9h11.5c1.5,0,2.7-1.3,2.7-2.8s-1.2-2.8-2.7-2.8H19.9z"/>
				</g>
			</g>
			<g>
				<path id="Shape-Copy-4_1_" sketch:type="MSShapeGroup" class="st2" d="M46,57c0,8.3,6.7,15,15,15s15-6.7,15-15s-6.7-15-15-15
					S46,48.7,46,57z"/>
				<path class="st0" d="M61,73c-8.8,0-16-7.2-16-16s7.2-16,16-16s16,7.2,16,16S69.8,73,61,73z M61,43c-7.7,0-14,6.3-14,14
					s6.3,14,14,14s14-6.3,14-14S68.7,43,61,43z"/>
			</g>
			<path id="Path-Copy" sketch:type="MSShapeGroup" class="st0" d="M69.7,52.1L60.2,64c-0.1,0.1-0.2,0.2-0.3,0.2
				c-0.2,0-0.3-0.1-0.3-0.2c-0.1-0.1-5.4-5-5.4-5l-0.1-0.1c0-0.1-0.1-0.1-0.1-0.2s0-0.2,0.1-0.2c0,0,0,0,0.1-0.1
				c0.5-0.5,1.6-1.6,1.7-1.7c0.1-0.1,0.2-0.2,0.3-0.2c0.2,0,0.3,0.1,0.4,0.2s3.1,2.9,3.1,2.9l7.6-9.5c0.1-0.1,0.1-0.1,0.2-0.1
				s0.2,0,0.2,0.1l2.1,1.6c0.1,0.1,0.1,0.1,0.1,0.2C69.8,52,69.7,52.1,69.7,52.1L69.7,52.1z"/>
		</g>
	</g>
</g>
</svg>
