<?xml version="1.0" encoding="utf-8"?>
<!-- Generator: Adobe Illustrator 21.0.0, SVG Export Plug-In . SVG Version: 6.00 Build 0)  -->
<svg version="1.1" id="Capa_1" xmlns:sketch="http://www.bohemiancoding.com/sketch/ns"
	 xmlns="http://www.w3.org/2000/svg" xmlns:xlink="http://www.w3.org/1999/xlink" x="0px" y="0px" width="66px" height="66px"
	 viewBox="0 0 66 66" style="enable-background:new 0 0 66 66;" xml:space="preserve">
<style type="text/css">
	.st0{fill:#24EDA2;}
</style>
<title>Oval 356 + ios7-redo</title>
<desc>Created with Sketch.</desc>
<g id="Page-1" sketch:type="MSPage">
	<g id="Copay-v1-Buy-_x2013_-Main" transform="translate(-36.000000, -736.000000)" sketch:type="MSArtboardGroup">
		<g id="Oval-356-_x2B_-ios7-redo" transform="translate(37.000000, 737.000000)" sketch:type="MSLayerGroup">
			<path class="st0" d="M32,65C13.8,65-1,50.2-1,32S13.8-1,32-1s33,14.8,33,33S50.2,65,32,65z M32,1C14.9,1,1,14.9,1,32
				s13.9,31,31,31s31-13.9,31-31S49.1,1,32,1z"/>
			<g id="plus-round" transform="translate(14.933333, 14.933333)" sketch:type="MSShapeGroup">
				<path id="Shape" class="st0" d="M19.9,14.3V2.8c0-1.5-1.3-2.7-2.8-2.7s-2.8,1.2-2.8,2.7v11.5H2.8c-1.5,0-2.7,1.3-2.7,2.8
					s1.2,2.8,2.7,2.8h11.5v11.5c0,1.5,1.3,2.7,2.8,2.7s2.8-1.2,2.8-2.7V19.9h11.5c1.5,0,2.7-1.3,2.7-2.8s-1.2-2.8-2.7-2.8H19.9z"/>
			</g>
		</g>
	</g>
</g>
</svg>
