<?xml version="1.0" encoding="utf-8"?>
<!-- Generator: Adobe Illustrator 21.0.0, SVG Export Plug-In . SVG Version: 6.00 Build 0)  -->
<svg version="1.1" id="Capa_1" xmlns:sketch="http://www.bohemiancoding.com/sketch/ns"
	 xmlns="http://www.w3.org/2000/svg" xmlns:xlink="http://www.w3.org/1999/xlink" x="0px" y="0px" width="80px" height="66px"
	 viewBox="0 0 80 66" style="enable-background:new 0 0 80 66;" xml:space="preserve">
<style type="text/css">
	.st0{fill:#000A3B;}
	.st1{clip-path:url(#SVGID_2_);}
	.st2{fill:url(#SVGID_3_);}
	.st3{fill:url(#SVGID_4_);}
	.st4{fill:url(#SVGID_5_);}
	.st5{fill:url(#SVGID_6_);}
	.st6{fill:url(#SVGID_7_);}
	.st7{fill:url(#SVGID_8_);}
	.st8{fill:#1ABC9C;}
	.st9{fill:#FFFFFF;}
</style>
<title>fi-bitcoin-circle + Oval 356 + ios7-redo Copy 4</title>
<desc>Created with Sketch.</desc>
<g id="Page-1" sketch:type="MSPage">
	<g id="Copay-v1-Buy-_x2013_-Main" transform="translate(-34.000000, -387.000000)" sketch:type="MSArtboardGroup">
		
			<g id="fi-bitcoin-circle-_x2B_-Oval-356-_x2B_-ios7-redo-Copy-4" transform="translate(34.000000, 387.000000)" sketch:type="MSLayerGroup">
			<g>
				<path id="coin" class="st0" d="M32,63.6c17.5,0,31.6-14.1,31.6-31.6S49.3,0.5,32,0.5S0.4,14.6,0.4,32.1S14.5,63.6,32,63.6z"/>
				<g id="BitPay.-Bitcoin_Symbol_1_">
					<g>
						<g>
							<g>
								<defs>
									<polygon id="SVGID_1_" points="11.6,20.3 11.6,43.8 32,55.5 52.3,43.8 52.3,20.3 32,8.6 									"/>
								</defs>
								<clipPath id="SVGID_2_">
									<use xlink:href="#SVGID_1_"  style="overflow:visible;"/>
								</clipPath>
								<g class="st1">
									<g>
										
											<linearGradient id="SVGID_3_" gradientUnits="userSpaceOnUse" x1="38.4682" y1="949.7927" x2="52.2734" y2="957.7631" gradientTransform="matrix(1 0 0 1 0 -914)">
											<stop  offset="0" style="stop-color:#389BCA"/>
											<stop  offset="0.1726" style="stop-color:#3393C1"/>
											<stop  offset="0.454" style="stop-color:#257CA8"/>
											<stop  offset="0.8072" style="stop-color:#0E5881"/>
											<stop  offset="1" style="stop-color:#004169"/>
										</linearGradient>
										<polygon class="st2" points="52.3,21 52.3,43.8 32.6,55.1 32.6,46 44.4,39.2 44.4,25.6 										"/>
										
											<linearGradient id="SVGID_4_" gradientUnits="userSpaceOnUse" x1="25.4376" y1="949.7927" x2="11.6325" y2="957.7631" gradientTransform="matrix(1 0 0 1 0 -914)">
											<stop  offset="0" style="stop-color:#389BCA"/>
											<stop  offset="0.1726" style="stop-color:#3393C1"/>
											<stop  offset="0.454" style="stop-color:#257CA8"/>
											<stop  offset="0.8072" style="stop-color:#0E5881"/>
											<stop  offset="1" style="stop-color:#004169"/>
										</linearGradient>
										<polygon class="st3" points="19.5,39.2 31.4,46 31.4,55.1 11.6,43.8 11.6,21 19.5,25.6 										"/>
										
											<linearGradient id="SVGID_5_" gradientUnits="userSpaceOnUse" x1="31.9529" y1="938.5284" x2="31.9529" y2="922.5824" gradientTransform="matrix(1 0 0 1 0 -914)">
											<stop  offset="0" style="stop-color:#389BCA"/>
											<stop  offset="0.1726" style="stop-color:#3393C1"/>
											<stop  offset="0.454" style="stop-color:#257CA8"/>
											<stop  offset="0.8072" style="stop-color:#0E5881"/>
											<stop  offset="1" style="stop-color:#004169"/>
										</linearGradient>
										<polygon class="st4" points="51.7,20 43.8,24.5 32,17.7 20.1,24.5 12.2,20 32,8.6 										"/>
									</g>
									<g>
										
											<linearGradient id="SVGID_6_" gradientUnits="userSpaceOnUse" x1="31.9426" y1="946.0679" x2="42.0227" y2="951.8877" gradientTransform="matrix(1 0 0 1 0 -914)">
											<stop  offset="0" style="stop-color:#F0E400"/>
											<stop  offset="1" style="stop-color:#65A428"/>
										</linearGradient>
										<polygon class="st5" points="42,26.3 42,26.3 42,37.8 32,43.7 32,32.1 										"/>
										
											<linearGradient id="SVGID_7_" gradientUnits="userSpaceOnUse" x1="31.9633" y1="946.0679" x2="21.8961" y2="951.8802" gradientTransform="matrix(1 0 0 1 0 -914)">
											<stop  offset="0" style="stop-color:#F0E400"/>
											<stop  offset="1" style="stop-color:#65A428"/>
										</linearGradient>
										<polygon class="st6" points="32,32.1 32,43.7 31.4,43.3 21.9,37.8 21.9,26.3 21.9,26.3 										"/>
										
											<linearGradient id="SVGID_8_" gradientUnits="userSpaceOnUse" x1="31.9529" y1="946.05" x2="31.9529" y2="934.4097" gradientTransform="matrix(1 0 0 1 0 -914)">
											<stop  offset="0" style="stop-color:#F0E400"/>
											<stop  offset="1" style="stop-color:#65A428"/>
										</linearGradient>
										<polygon class="st7" points="32,32.1 21.9,26.3 32,20.4 42,26.3 										"/>
									</g>
								</g>
							</g>
						</g>
					</g>
				</g>
			</g>
			<g id="Oval-356-_x2B_-ios7-redo" transform="translate(48.000000, 34.000000)" sketch:type="MSShapeGroup">
				<g>
					<circle id="Oval-356_1_" class="st8" cx="15" cy="15" r="15"/>
					<path class="st9" d="M15,31C6.2,31-1,23.8-1,15S6.2-1,15-1s16,7.2,16,16S23.8,31,15,31z M15,1C7.3,1,1,7.3,1,15s6.3,14,14,14
						s14-6.3,14-14S22.7,1,15,1z"/>
				</g>
				<g id="plus-round" transform="translate(7.000000, 7.000000)">
					<path id="Shape_3_" class="st9" d="M14.7,6.7H9.3V1.3C9.3,0.6,8.7,0,8,0S6.7,0.6,6.7,1.3v5.4H1.3C0.6,6.7,0,7.3,0,8
						c0,0.7,0.6,1.3,1.3,1.3h5.4v5.4C6.7,15.4,7.3,16,8,16s1.3-0.6,1.3-1.3V9.3h5.4C15.4,9.3,16,8.7,16,8S15.4,6.7,14.7,6.7
						L14.7,6.7z"/>
				</g>
			</g>
		</g>
	</g>
</g>
</svg>
