<?xml version="1.0" encoding="utf-8"?>
<!-- Generator: Adobe Illustrator 21.0.0, SVG Export Plug-In . SVG Version: 6.00 Build 0)  -->
<svg version="1.1" id="Capa_1" xmlns="http://www.w3.org/2000/svg" xmlns:xlink="http://www.w3.org/1999/xlink" x="0px" y="0px"
	 width="1000px" height="1000px" viewBox="0 0 1000 1000" style="enable-background:new 0 0 1000 1000;" xml:space="preserve">
<style type="text/css">
	.st0{fill:#000A3B;}
	.st1{clip-path:url(#SVGID_2_);}
	.st2{fill:url(#SVGID_3_);}
	.st3{fill:url(#SVGID_4_);}
	.st4{fill:url(#SVGID_5_);}
	.st5{fill:url(#SVGID_6_);}
	.st6{fill:url(#SVGID_7_);}
	.st7{fill:url(#SVGID_8_);}
</style>
<g>
	<path id="coin" class="st0" d="M500,1000c276.5,0,500-223.5,500-500S774.5,0,500,0S0,223.5,0,500S223.5,1000,500,1000z"/>
	<g id="BitPay.-Bitcoin_Symbol">
		<g>
			<g>
				<g>
					<defs>
						<polygon id="SVGID_1_" points="178.6,314.3 178.6,685.7 500,871.4 821.4,685.7 821.4,314.3 500,128.6 						"/>
					</defs>
					<clipPath id="SVGID_2_">
						<use xlink:href="#SVGID_1_"  style="overflow:visible;"/>
					</clipPath>
					<g class="st1">
						<g>
							
								<linearGradient id="SVGID_3_" gradientUnits="userSpaceOnUse" x1="603.1191" y1="1473.2363" x2="821.6179" y2="1599.3862" gradientTransform="matrix(1 0 0 1 0 -914)">
								<stop  offset="0" style="stop-color:#389BCA"/>
								<stop  offset="0.1726" style="stop-color:#3393C1"/>
								<stop  offset="0.454" style="stop-color:#257CA8"/>
								<stop  offset="0.8072" style="stop-color:#0E5881"/>
								<stop  offset="1" style="stop-color:#004169"/>
							</linearGradient>
							<polygon class="st2" points="821.4,325 821.4,685.7 509.5,865.5 509.5,721.4 696.4,613.1 696.4,397.6 							"/>
							
								<linearGradient id="SVGID_4_" gradientUnits="userSpaceOnUse" x1="396.8808" y1="1473.2365" x2="178.382" y2="1599.3861" gradientTransform="matrix(1 0 0 1 0 -914)">
								<stop  offset="0" style="stop-color:#389BCA"/>
								<stop  offset="0.1726" style="stop-color:#3393C1"/>
								<stop  offset="0.454" style="stop-color:#257CA8"/>
								<stop  offset="0.8072" style="stop-color:#0E5881"/>
								<stop  offset="1" style="stop-color:#004169"/>
							</linearGradient>
							<polygon class="st3" points="303.6,613.1 490.5,721.4 490.5,865.5 178.6,685.7 178.6,325 303.6,397.6 							"/>
							
								<linearGradient id="SVGID_5_" gradientUnits="userSpaceOnUse" x1="500" y1="1294.9524" x2="500" y2="1042.5714" gradientTransform="matrix(1 0 0 1 0 -914)">
								<stop  offset="0" style="stop-color:#389BCA"/>
								<stop  offset="0.1726" style="stop-color:#3393C1"/>
								<stop  offset="0.454" style="stop-color:#257CA8"/>
								<stop  offset="0.8072" style="stop-color:#0E5881"/>
								<stop  offset="1" style="stop-color:#004169"/>
							</linearGradient>
							<polygon class="st4" points="811.9,309.5 686.9,381 500,272.6 313.1,381 188.1,309.5 500,128.6 							"/>
						</g>
						<g>
							
								<linearGradient id="SVGID_6_" gradientUnits="userSpaceOnUse" x1="499.8363" y1="1414.2836" x2="659.3768" y2="1506.3943" gradientTransform="matrix(1 0 0 1 0 -914)">
								<stop  offset="0" style="stop-color:#F0E400"/>
								<stop  offset="1" style="stop-color:#65A428"/>
							</linearGradient>
							<polygon class="st5" points="659.5,408.3 659.5,408.3 659.5,591.7 500,684.5 500,500 							"/>
							
								<linearGradient id="SVGID_7_" gradientUnits="userSpaceOnUse" x1="500.1636" y1="1414.2834" x2="340.8281" y2="1506.2761" gradientTransform="matrix(1 0 0 1 0 -914)">
								<stop  offset="0" style="stop-color:#F0E400"/>
								<stop  offset="1" style="stop-color:#65A428"/>
							</linearGradient>
							<polygon class="st6" points="500,500 500,684.5 490.5,678.6 340.5,591.7 340.5,408.3 340.5,408.3 							"/>
							
								<linearGradient id="SVGID_8_" gradientUnits="userSpaceOnUse" x1="500" y1="1414" x2="500" y2="1229.7655" gradientTransform="matrix(1 0 0 1 0 -914)">
								<stop  offset="0" style="stop-color:#F0E400"/>
								<stop  offset="1" style="stop-color:#65A428"/>
							</linearGradient>
							<polygon class="st7" points="500,500 340.5,408.3 500,315.5 659.5,408.3 							"/>
						</g>
					</g>
				</g>
			</g>
		</g>
	</g>
</g>
</svg>
