<?xml version="1.0" encoding="utf-8"?>
<!-- Generator: Adobe Illustrator 21.0.0, SVG Export Plug-In . SVG Version: 6.00 Build 0)  -->
<svg version="1.1" id="Bitcoin_Symbol" xmlns="http://www.w3.org/2000/svg" xmlns:xlink="http://www.w3.org/1999/xlink" x="0px"
	 y="0px" width="14px" height="16px" viewBox="0 0 14 16" style="enable-background:new 0 0 14 16;" xml:space="preserve">
<style type="text/css">
	.st0{clip-path:url(#SVGID_2_);}
	.st1{fill:#8E8E8E;}
	.st2{fill:#5D5D5D;}
	.st3{fill:#757575;}
</style>
<g id="Symbols">
	<g id="Address-_x28_Bitcoin_x29_" transform="translate(-11.000000, -12.000000)">
		<g id="Items_x2F_Bitcoin-Address">
			<g id="Items_x2F_Bitcoin-Address-Copy">
				<g>
					<g>
						<g>
							<g>
								<defs>
									<polygon id="SVGID_1_" points="11.2,16.1 11.2,23.9 18,27.9 24.8,23.9 24.8,16.1 18,12.1 									"/>
								</defs>
								<clipPath id="SVGID_2_">
									<use xlink:href="#SVGID_1_"  style="overflow:visible;"/>
								</clipPath>
								<g class="st0">
									<g>
										<polygon class="st1" points="24.8,16.3 24.8,23.9 18.2,27.7 18.2,24.7 22.1,22.4 22.1,17.8 										"/>
										<polygon class="st2" points="13.8,22.4 17.8,24.7 17.8,27.7 11.2,23.9 11.2,16.3 13.8,17.8 										"/>
										<polygon class="st3" points="24.6,16 21.9,17.5 18,15.2 14,17.5 11.4,16 18,12.1 										"/>
									</g>
									<g>
										<polygon class="st1" points="21.4,18.1 21.4,18.1 21.4,21.9 18,23.9 18,20 										"/>
										<polygon class="st2" points="18,20 18,23.9 17.8,23.8 14.6,21.9 14.6,18.1 14.6,18.1 										"/>
										<polygon class="st3" points="18,20 14.6,18.1 18,16.1 21.4,18.1 										"/>
									</g>
								</g>
							</g>
						</g>
					</g>
				</g>
			</g>
		</g>
	</g>
</g>
<title>Bitcoin_Symbol</title>
<desc>Created with Sketch.</desc>
<title>Bitcoin_Symbol</title>
<desc>Created with Sketch.</desc>
</svg>
