<?xml version="1.0" encoding="utf-8"?>
<!-- Generator: Adobe Illustrator 21.0.0, SVG Export Plug-In . SVG Version: 6.00 Build 0)  -->
<svg version="1.1" id="Capa_1" xmlns="http://www.w3.org/2000/svg" xmlns:xlink="http://www.w3.org/1999/xlink" x="0px" y="0px"
	 width="25px" height="25px" viewBox="0 0 25 25" style="enable-background:new 0 0 25 25;" xml:space="preserve">
<style type="text/css">
	.st0{fill:#0098CD;}
	.st1{fill:#FFFFFF;}
</style>
<g>
	<path class="st0" d="M12.5,0C5.6,0,0,5.6,0,12.5S5.6,25,12.5,25S25,19.4,25,12.5S19.4,0,12.5,0z"/>
	<path class="st1" d="M12.8,6.3c-1.6,0-3.2,1-3.8,2.4C8.8,8.9,9,9.3,9.3,9.4c0.3,0.1,0.6,0,0.8-0.3c0.5-1,1.7-1.8,2.8-1.8
		c1.6,0,3,1.3,3,2.7s-1.4,2.7-3,2.7c-0.3,0-0.6,0.2-0.6,0.5v2.2c0,0.3,0.3,0.5,0.6,0.5c0.3,0,0.6-0.2,0.6-0.5v-1.7
		c2-0.3,3.5-1.9,3.5-3.8C17,8,15.1,6.3,12.8,6.3z"/>
	<circle class="st1" cx="12.5" cy="17.9" r="1"/>
</g>
</svg>
