<?xml version="1.0" encoding="utf-8"?>
<!-- Generator: Adobe Illustrator 21.0.0, SVG Export Plug-In . SVG Version: 6.00 Build 0)  -->
<svg version="1.1" id="Capa_1" xmlns="http://www.w3.org/2000/svg" xmlns:xlink="http://www.w3.org/1999/xlink" x="0px" y="0px"
	 width="27.8px" height="32px" viewBox="0 0 27.8 32" style="enable-background:new 0 0 27.8 32;" xml:space="preserve">
<style type="text/css">
	.st0{clip-path:url(#SVGID_2_);}
	.st1{fill:#E5E5E5;}
	.st2{fill:#FFFFFF;}
	.st3{fill:#F2F2F2;}
</style>
<title>Imported Layers</title>
<desc>Created with Sketch.</desc>
<g id="Symbols_1_">
	<g id="Address-_x28_Bitcoin_x29_" transform="translate(-11.000000, -12.000000)">
		<g id="Items_x2F_Bitcoin-Address">
			<g id="Items_x2F_Bitcoin-Address-Copy">
				<g>
					<g>
						<g>
							<g>
								<defs>
									<polygon id="SVGID_1_" points="11.5,20.3 11.5,35.7 24.9,43.4 38.2,35.7 38.2,20.3 24.9,12.6 									"/>
								</defs>
								<clipPath id="SVGID_2_">
									<use xlink:href="#SVGID_1_"  style="overflow:visible;"/>
								</clipPath>
								<g class="st0">
									<g>
										<polygon class="st1" points="38.2,20.7 38.2,35.7 25.3,43.2 25.3,37.2 33,32.7 33,23.8 										"/>
										<polygon class="st2" points="16.7,32.7 24.5,37.2 24.5,43.2 11.5,35.7 11.5,20.7 16.7,23.8 										"/>
										<polygon class="st3" points="37.8,20.1 32.6,23.1 24.9,18.6 17.1,23.1 11.9,20.1 24.9,12.6 										"/>
									</g>
									<g>
										<polygon class="st1" points="31.5,24.2 31.5,24.2 31.5,31.8 24.9,35.7 24.9,28 										"/>
										<polygon class="st2" points="24.9,28 24.9,35.7 24.5,35.4 18.3,31.8 18.3,24.2 18.3,24.2 										"/>
										<polygon class="st3" points="24.9,28 18.3,24.2 24.9,20.3 31.5,24.2 										"/>
									</g>
								</g>
							</g>
						</g>
					</g>
				</g>
			</g>
		</g>
	</g>
</g>
</svg>
