<?xml version="1.0" encoding="utf-8"?>
<!-- Generator: Adobe Illustrator 21.0.0, SVG Export Plug-In . SVG Version: 6.00 Build 0)  -->
<svg version="1.1" id="Capa_1" xmlns="http://www.w3.org/2000/svg" xmlns:xlink="http://www.w3.org/1999/xlink" x="0px" y="0px"
	 width="14.4px" height="16px" viewBox="0 0 14.4 16" style="enable-background:new 0 0 14.4 16;" xml:space="preserve">
<style type="text/css">
	.st0{clip-path:url(#SVGID_2_);}
	.st1{fill:#8E8E8E;}
	.st2{fill:#5D5D5D;}
	.st3{fill:#757575;}
</style>
<title>Bitcoin_Symbol</title>
<desc>Created with Sketch.</desc>
<g id="Symbols">
	<g id="Address-_x28_Bitcoin_x29_" transform="translate(-11.000000, -12.000000)">
		<g id="Items_x2F_Bitcoin-Address">
			<g id="Items_x2F_Bitcoin-Address-Copy">
				<g>
					<g>
						<g>
							<g>
								<defs>
									<polygon id="SVGID_1_" points="11.8,16.3 11.8,23.7 18.2,27.4 24.6,23.7 24.6,16.3 18.2,12.6 									"/>
								</defs>
								<clipPath id="SVGID_2_">
									<use xlink:href="#SVGID_1_"  style="overflow:visible;"/>
								</clipPath>
								<g class="st0">
									<g>
										<polygon class="st1" points="24.6,16.5 24.6,23.7 18.4,27.3 18.4,24.4 22.1,22.3 22.1,18 										"/>
										<polygon class="st2" points="14.3,22.3 18,24.4 18,27.3 11.8,23.7 11.8,16.5 14.3,18 										"/>
										<polygon class="st3" points="24.4,16.2 21.9,17.6 18.2,15.5 14.5,17.6 12,16.2 18.2,12.6 										"/>
									</g>
									<g>
										<polygon class="st1" points="21.4,18.2 21.4,18.2 21.4,21.8 18.2,23.7 18.2,20 										"/>
										<polygon class="st2" points="18.2,20 18.2,23.7 18,23.6 15,21.8 15,18.2 15,18.2 										"/>
										<polygon class="st3" points="18.2,20 15,18.2 18.2,16.3 21.4,18.2 										"/>
									</g>
								</g>
							</g>
						</g>
					</g>
				</g>
			</g>
		</g>
	</g>
</g>
</svg>
