<?xml version="1.0" encoding="utf-8"?>
<!-- Generator: Adobe Illustrator 21.0.0, SVG Export Plug-In . SVG Version: 6.00 Build 0)  -->
<svg version="1.1" id="Capa_1" xmlns:sketch="http://www.bohemiancoding.com/sketch/ns"
	 xmlns="http://www.w3.org/2000/svg" xmlns:xlink="http://www.w3.org/1999/xlink" x="0px" y="0px" width="79px" height="75px"
	 viewBox="0 0 79 75" style="enable-background:new 0 0 79 75;" xml:space="preserve">
<style type="text/css">
	.st0{fill:#FFFFFF;}
	.st1{fill:#F6A623;}
	.st2{fill:#000A3B;}
</style>
<title>Oval 356 + ios7-redo Copy + Shape Copy 5</title>
<desc>Created with Sketch.</desc>
<g id="Page-1" sketch:type="MSPage">
	<g id="Copay-v1-Buy-_x2013_-Main" transform="translate(-18.000000, -867.000000)" sketch:type="MSArtboardGroup">
		
			<g id="Oval-356-_x2B_-ios7-redo-Copy-_x2B_-Shape-Copy-5" transform="translate(19.000000, 868.000000)" sketch:type="MSLayerGroup">
			<g id="Oval-356-_x2B_-ios7-redo-Copy" sketch:type="MSShapeGroup">
				<g>
					<circle id="Oval-356_1_" class="st0" cx="32" cy="32" r="32"/>
					<path class="st1" d="M32,65C13.8,65-1,50.2-1,32S13.8-1,32-1s33,14.8,33,33S50.2,65,32,65z M32,1C14.9,1,1,14.9,1,32
						s13.9,31,31,31s31-13.9,31-31S49.1,1,32,1z"/>
				</g>
				<g id="minus-round-copy" transform="translate(15.000000, 31.000000)">
					<path id="Shape" class="st1" d="M31.3,0H2.7C1.2,0,0,1.1,0,2.4s1.2,2.4,2.7,2.4h28.6c1.5,0,2.7-1.1,2.7-2.4S32.8,0,31.3,0
						L31.3,0z"/>
				</g>
			</g>
			<g id="Shape-Copy-5-_x2B_-Path-Copy-2" transform="translate(46.000000, 42.000000)" sketch:type="MSShapeGroup">
				<g>
					<path id="Shape-Copy-5_1_" class="st2" d="M0,15c0,8.3,6.7,15,15,15s15-6.7,15-15S23.3,0,15,0S0,6.7,0,15z"/>
					<path class="st0" d="M15,31C6.2,31-1,23.8-1,15S6.2-1,15-1s16,7.2,16,16S23.8,31,15,31z M15,1C7.3,1,1,7.3,1,15s6.3,14,14,14
						s14-6.3,14-14S22.7,1,15,1z"/>
				</g>
				<path id="Path-Copy-2" class="st0" d="M23.7,10.1L14.2,22c-0.1,0.1-0.2,0.2-0.3,0.2c-0.2,0-0.3-0.1-0.3-0.2
					c-0.1-0.1-5.4-5-5.4-5l-0.1-0.1c0-0.1-0.1-0.1-0.1-0.2s0-0.2,0.1-0.2c0,0,0,0,0.1-0.1c0.5-0.5,1.6-1.6,1.7-1.7
					c0.1-0.1,0.2-0.2,0.3-0.2c0.2,0,0.3,0.1,0.4,0.2c0.1,0.1,3.1,2.9,3.1,2.9l7.6-9.5C21.4,8,21.4,8,21.5,8s0.2,0,0.2,0.1l2.1,1.6
					c0.1,0.1,0.1,0.1,0.1,0.2C23.8,10,23.7,10.1,23.7,10.1L23.7,10.1z"/>
			</g>
		</g>
	</g>
</g>
</svg>
