<?xml version="1.0" encoding="utf-8"?>
<!-- Generator: Adobe Illustrator 21.0.0, SVG Export Plug-In . SVG Version: 6.00 Build 0)  -->
<svg version="1.1" id="Capa_1" xmlns="http://www.w3.org/2000/svg" xmlns:xlink="http://www.w3.org/1999/xlink" x="0px" y="0px"
	 width="247px" height="248px" viewBox="0 0 247 248" style="enable-background:new 0 0 247 248;" xml:space="preserve">
<style type="text/css">
	.st0{opacity:0.3;fill:url(#Oval-2_2_);enable-background:new    ;}
	.st1{fill:#192C3A;fill-opacity:0.65;stroke:#707D89;stroke-width:2;}
	.st2{fill:none;stroke:#707D89;stroke-width:2;stroke-linecap:square;}
	.st3{opacity:0.9456;fill:#192C3A;fill-opacity:0.4191;stroke:#707D89;stroke-width:2;enable-background:new    ;}
	.st4{fill:none;stroke:#26EEA2;stroke-width:3;stroke-linecap:square;}
	.st5{filter:url(#Adobe_OpacityMaskFilter);}
	.st6{fill:#FFFFFF;}
	.st7{mask:url(#mask-3);fill:none;stroke:#707D89;stroke-width:2;}
	.st8{opacity:0.9;}
</style>
<title>push-notifications</title>
<desc>Created with Sketch.</desc>
<g id="Page-1">
	<g id="push-notifications" transform="translate(0.000000, 1.000000)">
		<g id="Onboarding">
			<g id="_x30_.4---Allow-Push-Notifications">
				<g id="Group-7">
					
						<linearGradient id="Oval-2_2_" gradientUnits="userSpaceOnUse" x1="-115.0304" y1="522.8867" x2="-115.0304" y2="521.9919" gradientTransform="matrix(247 0 0 -247 28536 129153)">
						<stop  offset="0" style="stop-color:#192C3A"/>
						<stop  offset="1" style="stop-color:#192C3A"/>
					</linearGradient>
					<path id="Oval-2" class="st0" d="M123.5,247c68.2,0,123.5-55.3,123.5-123.5S191.7,0,123.5,0S0,55.3,0,123.5S55.3,247,123.5,247
						z"/>
					<g id="Phone" transform="translate(62.000000, 0.000000)">
						<path id="Combined-Shape" class="st1" d="M8,0h106.2c4.4,0,8,3.6,8,8v204.5c0,4.4-3.6,8-8,8H8c-4.4,0-8-3.6-8-8V8
							C0,3.6,3.6,0,8,0z"/>
						<path id="Line" class="st2" d="M0.6,187h120.9"/>
						<path id="Line_1_" class="st2" d="M50.3,203h22.9"/>
					</g>
					<ellipse id="Oval-2_1_" class="st3" cx="169" cy="57.5" rx="47" ry="44.5"/>
					<g id="Group-3" transform="translate(62.000000, 33.000000)">
						<path id="Line_2_" class="st4" d="M12.7,19.5h37.8"/>
						<path id="Line_3_" class="st4" d="M22,10.4h21"/>
						<g id="Rectangle-3">
							<g id="path-2-Clipped">
								<g id="path-2_1_">
								</g>
								<defs>
									<filter id="Adobe_OpacityMaskFilter" filterUnits="userSpaceOnUse" x="-1" y="-1" width="124" height="36">
										<feColorMatrix  type="matrix" values="1 0 0 0 0  0 1 0 0 0  0 0 1 0 0  0 0 0 1 0"/>
									</filter>
								</defs>
								<mask maskUnits="userSpaceOnUse" x="-1" y="-1" width="124" height="36" id="mask-3">
									<g class="st5">
										<rect id="path-2" class="st6" width="122" height="34"/>
									</g>
								</mask>
								<rect id="path-2_2_" class="st7" width="122" height="34"/>
							</g>
						</g>
					</g>
					<g id="android-notifications-none" transform="translate(144.642407, 28.000000)" class="st8">
						<path id="Shape" class="st6" d="M24.5,9.6c1,0,3.3,0.6,3.3,0.6c6.3,1.4,10.8,6.9,10.8,13.2v15.1v1.7l1.3,1.2l1.1,1H7.8l1.1-1
							l1.3-1.2v-1.7V23.4c0-6.3,4.4-11.8,10.8-13.2c0,0,2.5-0.6,3.3-0.6H24.5z M24.4,0c-2.4,0-4.3,1.8-4.3,4.1V6
							C11.9,7.8,5.7,15,5.7,23.4v15.1L0,44v2.8h48.8V44L43,38.5V23.4C43,15,36.9,7.8,28.7,6V4.1C28.7,1.8,26.8,0,24.4,0L24.4,0
							L24.4,0z M30.1,49.5H18.6c0,3,2.6,5.5,5.7,5.5S30.1,52.5,30.1,49.5L30.1,49.5L30.1,49.5z"/>
					</g>
				</g>
			</g>
		</g>
	</g>
</g>
</svg>
