<?xml version="1.0" encoding="utf-8"?>
<!-- Generator: Adobe Illustrator 21.0.0, SVG Export Plug-In . SVG Version: 6.00 Build 0)  -->
<svg version="1.1" id="Capa_1" xmlns="http://www.w3.org/2000/svg" xmlns:xlink="http://www.w3.org/1999/xlink" x="0px" y="0px"
	 width="247px" height="247px" viewBox="0 0 247 247" style="enable-background:new 0 0 247 247;" xml:space="preserve">
<style type="text/css">
	.st0{opacity:0.3;fill:url(#Oval-2_1_);enable-background:new    ;}
	.st1{fill:#192C3A;fill-opacity:0.65;stroke:#707D89;stroke-width:2;}
	.st2{fill:none;stroke:#707D89;stroke-width:2;stroke-linecap:square;}
	.st3{fill:#FFFFFF;}
	.st4{fill:#192C3A;stroke:#26EEA2;stroke-width:2;}
	.st5{fill:none;stroke:#26EEA2;stroke-width:2;}
	.st6{fill:#F9F9F9;stroke:#12E5B6;stroke-width:2;}
</style>
<title>tour-control</title>
<desc>Created with Sketch.</desc>
<g id="Page-1">
	<g id="tour-control">
		<g id="Onboarding">
			<g id="_x30_.2.3---Tour-3">
				<g id="bg-3">
					
						<linearGradient id="Oval-2_1_" gradientUnits="userSpaceOnUse" x1="-230.5607" y1="2.2348" x2="-230.5607" y2="3.1295" gradientTransform="matrix(247 0 0 247 57072 -552)">
						<stop  offset="0" style="stop-color:#192C3A"/>
						<stop  offset="1" style="stop-color:#192C3A"/>
					</linearGradient>
					<path id="Oval-2" class="st0" d="M123.5,247c68.2,0,123.5-55.3,123.5-123.5S191.7,0,123.5,0S0,55.3,0,123.5S55.3,247,123.5,247
						z"/>
					<path id="Combined-Shape" class="st1" d="M71,24h83.8c4.4,0,8,3.6,8,8v167.9c0,4.4-3.6,8-8,8H71c-4.4,0-8-3.6-8-8V32
						C63,27.6,66.6,24,71,24z"/>
					<path id="Line" class="st2" d="M63.5,180.6h98.8"/>
					<path id="Line_1_" class="st2" d="M104.1,194.3h18.7"/>
					<g>
						<path class="st3" d="M112.6,90.8l13.6,7.8l9-5.2l-22.6-13.1L90,93.5l9,5.2L112.6,90.8z M112.6,81.6l20.6,11.9l-7,4.1L113.1,90
							l-0.5-0.3l-0.5,0.3L99,97.5l-7-4.1L112.6,81.6z"/>
						<path class="st3" d="M126.8,99.8v15.7l-13.6,7.8v10.4l22.6-13V94.6L126.8,99.8z M134.8,120.2L114.3,132v-8.1l13.1-7.5l0.5-0.3
							v-15.7l7-4.1L134.8,120.2L134.8,120.2z"/>
						<path class="st3" d="M98.3,99.8l-9-5.2v26.1l22.6,13v-10.4l-13.6-7.8V99.8z M110.9,123.9v8.1l-20.6-11.9V96.4l7,4.1v15.7
							l0.5,0.3L110.9,123.9z"/>
						<path class="st3" d="M124.1,101.2v-0.6l-0.5-0.3l-11-6.4l-11,6.4l-0.5,0.3v0.6V114l11,6.4l0.5,0.3l0.5-0.3l11-6.4V101.2z
							 M112.6,95.1l10,5.8l-10,5.8l-10-5.8L112.6,95.1z M102,113.4v-11.6l10,5.8v11.6L102,113.4z M123.1,113.4l-10,5.8v-11.6l10-5.8
							V113.4z"/>
					</g>
					<g id="Group-3" transform="translate(125.000000, 122.000000)">
						<path id="Rectangle-path" class="st4" d="M4,37.6h66.8c2.2,0,4,1.8,4,4v57.7c0,2.2-1.8,4-4,4H4c-2.2,0-4-1.8-4-4V41.6
							C0,39.4,1.8,37.6,4,37.6z"/>
						<path id="Shape_6_" class="st5" d="M18.7,37.6V18.9c0-10.3,8.4-18.8,18.7-18.8l0,0c10.3,0,18.7,8.4,18.7,18.8v18.8"/>
						<path id="Shape_7_" class="st6" d="M36.6,65.8v9.4"/>
					</g>
				</g>
			</g>
		</g>
	</g>
</g>
</svg>
