<?xml version="1.0" encoding="utf-8"?>
<!-- Generator: Adobe Illustrator 21.0.0, SVG Export Plug-In . SVG Version: 6.00 Build 0)  -->
<svg version="1.1" id="Capa_1" xmlns="http://www.w3.org/2000/svg" xmlns:xlink="http://www.w3.org/1999/xlink" x="0px" y="0px"
	 width="84px" height="84px" viewBox="0 0 84 84" style="enable-background:new 0 0 84 84;" xml:space="preserve">
<style type="text/css">
	.st0{fill:#000A3B;}
	.st1{clip-path:url(#SVGID_2_);}
	.st2{fill:url(#SVGID_3_);}
	.st3{fill:url(#SVGID_4_);}
	.st4{fill:url(#SVGID_5_);}
	.st5{fill:url(#SVGID_6_);}
	.st6{fill:url(#SVGID_7_);}
	.st7{fill:url(#SVGID_8_);}
</style>
<title>Group</title>
<desc>Created with Sketch.</desc>
<g id="Page-1">
	<g id="Artboard" transform="translate(-176.000000, -144.000000)">
		<g id="Group" transform="translate(176.000000, 144.000000)">
			<circle id="Oval" class="st0" cx="42" cy="42" r="42"/>
			<g>
				<g>
					<g>
						<defs>
							<polygon id="SVGID_1_" points="15,26.4 15,57.6 42,73.2 69,57.6 69,26.4 42,10.8 							"/>
						</defs>
						<clipPath id="SVGID_2_">
							<use xlink:href="#SVGID_1_"  style="overflow:visible;"/>
						</clipPath>
						<g class="st1">
							<g>
								
									<linearGradient id="SVGID_3_" gradientUnits="userSpaceOnUse" x1="50.6499" y1="39.0027" x2="68.9929" y2="28.4124" gradientTransform="matrix(1 0 0 -1 0 86)">
									<stop  offset="0" style="stop-color:#389BCA"/>
									<stop  offset="0.1726" style="stop-color:#3393C1"/>
									<stop  offset="0.454" style="stop-color:#257CA8"/>
									<stop  offset="0.8072" style="stop-color:#0E5881"/>
									<stop  offset="1" style="stop-color:#004169"/>
								</linearGradient>
								<polygon class="st2" points="69,27.3 69,57.6 42.8,72.7 42.8,60.6 58.5,51.5 58.5,33.4 								"/>
								
									<linearGradient id="SVGID_4_" gradientUnits="userSpaceOnUse" x1="33.3554" y1="39.0032" x2="15.0082" y2="28.4105" gradientTransform="matrix(1 0 0 -1 0 86)">
									<stop  offset="0" style="stop-color:#389BCA"/>
									<stop  offset="0.1726" style="stop-color:#3393C1"/>
									<stop  offset="0.454" style="stop-color:#257CA8"/>
									<stop  offset="0.8072" style="stop-color:#0E5881"/>
									<stop  offset="1" style="stop-color:#004169"/>
								</linearGradient>
								<polygon class="st3" points="25.5,51.5 41.2,60.6 41.2,72.7 15,57.6 15,27.3 25.5,33.4 								"/>
								
									<linearGradient id="SVGID_5_" gradientUnits="userSpaceOnUse" x1="42.0045" y1="53.9827" x2="42.0045" y2="75.1719" gradientTransform="matrix(1 0 0 -1 0 86)">
									<stop  offset="0" style="stop-color:#389BCA"/>
									<stop  offset="0.1726" style="stop-color:#3393C1"/>
									<stop  offset="0.454" style="stop-color:#257CA8"/>
									<stop  offset="0.8072" style="stop-color:#0E5881"/>
									<stop  offset="1" style="stop-color:#004169"/>
								</linearGradient>
								<polygon class="st4" points="68.2,26 57.7,32 42,22.9 26.3,32 15.8,26 42,10.8 								"/>
							</g>
							<g>
								
									<linearGradient id="SVGID_6_" gradientUnits="userSpaceOnUse" x1="42.0005" y1="43.9963" x2="55.4019" y2="36.259" gradientTransform="matrix(1 0 0 -1 0 86)">
									<stop  offset="0" style="stop-color:#F0E400"/>
									<stop  offset="1" style="stop-color:#65A428"/>
								</linearGradient>
								<polygon class="st5" points="55.4,34.3 55.4,34.3 55.4,49.7 42,57.5 42,42 								"/>
								
									<linearGradient id="SVGID_7_" gradientUnits="userSpaceOnUse" x1="42.0006" y1="43.9944" x2="28.606" y2="36.261" gradientTransform="matrix(1 0 0 -1 0 86)">
									<stop  offset="0" style="stop-color:#F0E400"/>
									<stop  offset="1" style="stop-color:#65A428"/>
								</linearGradient>
								<polygon class="st6" points="42,42 42,57.5 41.2,57 28.6,49.7 28.6,34.3 28.6,34.3 								"/>
								
									<linearGradient id="SVGID_8_" gradientUnits="userSpaceOnUse" x1="42.0045" y1="43.9955" x2="42.0045" y2="59.4712" gradientTransform="matrix(1 0 0 -1 0 86)">
									<stop  offset="0" style="stop-color:#F0E400"/>
									<stop  offset="1" style="stop-color:#65A428"/>
								</linearGradient>
								<polygon class="st7" points="42,42 28.6,34.3 42,26.5 55.4,34.3 								"/>
							</g>
						</g>
					</g>
				</g>
			</g>
		</g>
	</g>
</g>
</svg>
