<?xml version="1.0" encoding="utf-8"?>
<!-- Generator: Adobe Illustrator 21.0.0, SVG Export Plug-In . SVG Version: 6.00 Build 0)  -->
<svg version="1.1" id="Capa_1" xmlns="http://www.w3.org/2000/svg" xmlns:xlink="http://www.w3.org/1999/xlink" x="0px" y="0px"
	 width="51px" height="51px" viewBox="0 0 51 51" style="enable-background:new 0 0 51 51;" xml:space="preserve">
<style type="text/css">
	.st0{clip-path:url(#SVGID_1_);}
	.st1{fill:url(#SVGID_2_);}
	.st2{fill:url(#SVGID_3_);}
	.st3{fill:url(#SVGID_4_);}
	.st4{fill:url(#SVGID_5_);}
	.st5{fill:url(#SVGID_6_);}
	.st6{fill:url(#SVGID_7_);}
</style>
<title>icon-bitcoin</title>
<desc>Created with Sketch.</desc>
<g>
	<g>
		<defs>
			<polygon id="SVGID_9_" points="3.4,12.7 3.4,38.2 25.5,51 47.6,38.2 47.6,12.7 25.5,0 			"/>
		</defs>
		<clipPath id="SVGID_1_">
			<use xlink:href="#SVGID_9_"  style="overflow:visible;"/>
		</clipPath>
		<g class="st0">
			<g>
				
					<linearGradient id="SVGID_2_" gradientUnits="userSpaceOnUse" x1="32.576" y1="22.412" x2="47.5814" y2="13.7486" gradientTransform="matrix(1 0 0 -1 0 52)">
					<stop  offset="0" style="stop-color:#389BCA"/>
					<stop  offset="0.1726" style="stop-color:#3393C1"/>
					<stop  offset="0.454" style="stop-color:#257CA8"/>
					<stop  offset="0.8072" style="stop-color:#0E5881"/>
					<stop  offset="1" style="stop-color:#004169"/>
				</linearGradient>
				<polygon class="st1" points="47.6,13.5 47.6,38.3 26.1,50.6 26.1,40.7 39,33.3 39,18.4 				"/>
				
					<linearGradient id="SVGID_3_" gradientUnits="userSpaceOnUse" x1="18.4284" y1="22.4124" x2="3.4195" y2="13.7471" gradientTransform="matrix(1 0 0 -1 0 52)">
					<stop  offset="0" style="stop-color:#389BCA"/>
					<stop  offset="0.1726" style="stop-color:#3393C1"/>
					<stop  offset="0.454" style="stop-color:#257CA8"/>
					<stop  offset="0.8072" style="stop-color:#0E5881"/>
					<stop  offset="1" style="stop-color:#004169"/>
				</linearGradient>
				<polygon class="st2" points="12,33.3 24.9,40.7 24.9,50.6 3.4,38.3 3.4,13.5 12,18.4 				"/>
				
					<linearGradient id="SVGID_4_" gradientUnits="userSpaceOnUse" x1="25.5037" y1="34.6663" x2="25.5037" y2="52" gradientTransform="matrix(1 0 0 -1 0 52)">
					<stop  offset="0" style="stop-color:#389BCA"/>
					<stop  offset="0.1726" style="stop-color:#3393C1"/>
					<stop  offset="0.454" style="stop-color:#257CA8"/>
					<stop  offset="0.8072" style="stop-color:#0E5881"/>
					<stop  offset="1" style="stop-color:#004169"/>
				</linearGradient>
				<polygon class="st3" points="46.9,12.4 38.4,17.3 25.5,9.9 12.6,17.3 4.1,12.4 25.5,0 				"/>
			</g>
			<g>
				
					<linearGradient id="SVGID_5_" gradientUnits="userSpaceOnUse" x1="25.5004" y1="26.497" x2="36.4634" y2="20.1675" gradientTransform="matrix(1 0 0 -1 0 52)">
					<stop  offset="0" style="stop-color:#F0E400"/>
					<stop  offset="1" style="stop-color:#65A428"/>
				</linearGradient>
				<polygon class="st4" points="36.5,19.2 36.5,19.2 36.5,31.8 25.5,38.2 25.5,25.5 				"/>
				
					<linearGradient id="SVGID_6_" gradientUnits="userSpaceOnUse" x1="25.5005" y1="26.4954" x2="14.5431" y2="20.1691" gradientTransform="matrix(1 0 0 -1 0 52)">
					<stop  offset="0" style="stop-color:#F0E400"/>
					<stop  offset="1" style="stop-color:#65A428"/>
				</linearGradient>
				<polygon class="st5" points="25.5,25.5 25.5,38.2 24.9,37.8 14.5,31.8 14.5,19.2 14.5,19.2 				"/>
				
					<linearGradient id="SVGID_7_" gradientUnits="userSpaceOnUse" x1="25.5037" y1="26.4963" x2="25.5037" y2="39.1562" gradientTransform="matrix(1 0 0 -1 0 52)">
					<stop  offset="0" style="stop-color:#F0E400"/>
					<stop  offset="1" style="stop-color:#65A428"/>
				</linearGradient>
				<polygon class="st6" points="25.5,25.5 14.5,19.2 25.5,12.8 36.5,19.2 				"/>
			</g>
		</g>
	</g>
</g>
</svg>
