<?xml version="1.0" encoding="utf-8"?>
<!-- Generator: Adobe Illustrator 21.0.0, SVG Export Plug-In . SVG Version: 6.00 Build 0)  -->
<svg version="1.1" id="Capa_1" xmlns:sketch="http://www.bohemiancoding.com/sketch/ns"
	 xmlns="http://www.w3.org/2000/svg" xmlns:xlink="http://www.w3.org/1999/xlink" x="0px" y="0px" width="594.5px" height="65.9px"
	 viewBox="0 0 594.5 65.9" style="enable-background:new 0 0 594.5 65.9;" xml:space="preserve">
<style type="text/css">
	.st0{fill:#000A3B;}
</style>
<title>download 3</title>
<desc>Created with Sketch.</desc>
<g id="Login">
	<polygon class="st0" points="26.3,0 0,65.9 15,65.9 32.9,19.8 45.7,52.7 32.9,52.7 32.9,65.9 65.8,65.9 39.5,0 	"/>
	<polygon class="st0" points="90.6,65.9 156.5,65.9 156.5,52.7 103.7,52.7 103.7,13.2 156.5,13.2 156.5,0 90.6,0 	"/>
	<polygon class="st0" points="181.1,13.2 207.5,13.2 207.5,65.9 220.7,65.9 220.7,13.2 247,13.2 247,0 181.1,0 	"/>
	<rect x="271.7" y="0" class="st0" width="13.2" height="65.9"/>
	<polygon class="st0" points="362.3,46.8 322.8,0 309.6,0 309.6,65.9 322.8,65.9 322.8,20.6 362.3,65.9 375.5,65.9 375.5,0 362.3,0 
			"/>
	<rect x="400.2" y="0" class="st0" width="13.2" height="65.9"/>
	<polygon class="st0" points="490.7,52.7 451.3,52.7 451.3,0 438.1,0 438.1,65.9 504,65.9 504,0 490.7,0 	"/>
	<polygon class="st0" points="528.6,0 528.6,65.9 541.8,65.9 541.8,13.2 555.1,13.2 555.1,65.9 568.2,65.9 568.2,13.2 581.4,13.2 
		581.4,65.9 594.5,65.9 594.5,0 	"/>
</g>
</svg>
