<?xml version="1.0" encoding="utf-8"?>
<!-- Generator: Adobe Illustrator 21.0.0, SVG Export Plug-In . SVG Version: 6.00 Build 0)  -->
<svg version="1.1" id="Capa_1" xmlns:sketch="http://www.bohemiancoding.com/sketch/ns"
	 xmlns="http://www.w3.org/2000/svg" xmlns:xlink="http://www.w3.org/1999/xlink" x="0px" y="0px" width="1407.4px" height="156px"
	 viewBox="0 0 1407.4 156" style="enable-background:new 0 0 1407.4 156;" xml:space="preserve">
<style type="text/css">
	.st0{fill:#2AEFA4;}
	.st1{fill:#FFFFFF;}
</style>
<title>Artboard 1</title>
<desc>Created with Sketch.</desc>
<g>
	<polygon class="st0" points="62.3,0 0,156 35.6,156 77.9,46.8 108.1,124.8 77.9,124.8 77.9,156 155.8,156 93.5,0 	"/>
	<polygon class="st1" points="214.4,156 370.4,156 370.4,124.8 245.5,124.8 245.5,31.3 370.4,31.3 370.4,0 214.4,0 	"/>
	<polygon class="st1" points="428.8,31.3 491.1,31.3 491.1,156 522.4,156 522.4,31.3 584.8,31.3 584.8,0 428.8,0 	"/>
	<rect x="643.3" class="st1" width="31.3" height="156"/>
	<polygon class="st1" points="857.6,110.7 764.1,0 732.9,0 732.9,156 764.1,156 764.1,48.8 857.6,156 888.9,156 888.9,0 857.6,0 	
		"/>
	<rect x="947.3" class="st1" width="31.3" height="156"/>
	<polygon class="st1" points="1161.7,124.8 1068.2,124.8 1068.2,0 1037.1,0 1037.1,156 1193,156 1193,0 1161.7,0 	"/>
	<polygon class="st1" points="1251.4,0 1251.4,156 1282.7,156 1282.7,31.3 1313.9,31.3 1313.9,156 1345,156 1345,31.3 1376.3,31.3 
		1376.3,156 1407.4,156 1407.4,0 	"/>
</g>
</svg>
