<?xml version="1.0" encoding="utf-8"?>
<!-- Generator: Adobe Illustrator 21.0.0, SVG Export Plug-In . SVG Version: 6.00 Build 0)  -->
<svg version="1.1" id="Capa_1" xmlns="http://www.w3.org/2000/svg" xmlns:xlink="http://www.w3.org/1999/xlink" x="0px" y="0px"
	 width="41px" height="41px" viewBox="0 0 41 41" style="enable-background:new 0 0 41 41;" xml:space="preserve">
<style type="text/css">
	.st0{fill:none;stroke:#444444;}
	.st1{clip-path:url(#SVGID_2_);}
	.st2{fill:#444444;}
</style>
<g>
	<title>bitcoin-topup</title>
	<g>
		<g transform="translate(-1113 -1082) translate(1113 1082) translate(.5 .5)">
			<path class="st0" d="M40,20c0,11-9,20-20,20S0,31,0,20S9,0,20,0c7.9,0,14.8,4.6,18,11.3"/>
			<path class="st0" d="M39,4l-1,7.2l-6-0.8"/>
		</g>
	</g>
</g>
<g id="Symbols_1_">
	<g id="Address-_x28_Bitcoin_x29_" transform="translate(-11.000000, -12.000000)">
		<g id="Items_x2F_Bitcoin-Address">
			<g id="Items_x2F_Bitcoin-Address-Copy">
				<g>
					<g>
						<g>
							<g>
								<defs>
									<polygon id="SVGID_1_" points="20.5,26.1 20.5,38.9 31.5,45.2 42.5,38.9 42.5,26.1 31.5,19.8 									"/>
								</defs>
								<clipPath id="SVGID_2_">
									<use xlink:href="#SVGID_1_"  style="overflow:visible;"/>
								</clipPath>
								<g class="st1">
									<g>
										<path class="st2" d="M41.5,28.2v10l-8.7,5v-2.6l5.9-3.4l0.5-0.3v-0.6v-6.8L41.5,28.2 M42.5,26.5L38.2,29v7.4l-6.4,3.7V45
											l10.7-6.2V26.5L42.5,26.5z"/>
										<path class="st2" d="M21.5,28.2l2.3,1.3v6.8v0.6l0.5,0.3l5.9,3.4v2.6l-8.7-5V28.2 M20.5,26.5v12.3L31.2,45v-4.9l-6.4-3.7
											V29L20.5,26.5L20.5,26.5z"/>
										<path class="st2" d="M31.5,20.9l8.7,5l-2.3,1.3L32,23.9l-0.5-0.3L31,23.9l-5.9,3.4L22.8,26L31.5,20.9 M31.5,19.8L20.8,26
											l4.3,2.4l6.4-3.7l6.4,3.7l4.3-2.4L31.5,19.8L31.5,19.8z"/>
									</g>
									<path class="st2" d="M36.5,29.1l-5-2.9l-5,2.9L26,29.4v0.6v5.7l5,2.9l0.2,0.1l0.3,0.2l0.5-0.3l5-2.9v-5.7v-0.6L36.5,29.1z
										 M31.5,27.3l4,2.3l-4,2.3l-4-2.3L31.5,27.3z M27,35.1v-4.5l4,2.3v4.6L27,35.1z M36,35.1l-4,2.3v-4.6l4-2.3V35.1z"/>
								</g>
							</g>
						</g>
					</g>
				</g>
			</g>
		</g>
	</g>
</g>
</svg>
